<svg width="98" height="98" viewBox="0 0 98 98" fill="none" xmlns="http://www.w3.org/2000/svg">
<rect width="98" height="98" rx="16" fill="#FFBE47"/>
<g clip-path="url(#clip0_26_4042)">
<path d="M81.6012 47.3052C79.1242 47.3052 76.7255 47.592 74.4049 47.227C71.0936 46.7055 68.8512 44.5675 67.6518 41.4126C65.0184 34.5031 60.1687 30.1227 52.9202 28.4279C43.7423 26.2638 33.4693 31.8175 30.2362 40.7347C25.9601 52.5721 32.8175 64.9049 45.1503 67.3819C51.5644 68.6595 57.3006 66.9648 62.1242 62.6105C63.9233 60.9939 65.3834 58.9862 67.1825 56.9525C68.6426 58.4908 69.6595 59.612 70.7285 60.6549C72.7883 62.7148 74.8482 64.7746 76.908 66.8344C80.9494 70.8497 81.1319 75.908 77.4034 80.1841C76.569 81.1227 75.6825 82.0092 74.7178 83.0261C72.1365 80.3666 69.6595 77.8375 67.2086 75.3344C49.7132 86.1028 32.296 78.8543 24.4218 69.9893C13.9402 58.1779 13.4187 41.1258 21.9187 28.9755C30.2362 17.0338 45.9325 11.9755 59.7776 16.8252C73.9617 21.8313 81.7577 35.4417 81.6012 47.3052Z" fill="black"/>
</g>
<defs>
<clipPath id="clip0_26_4042">
<rect width="65.6012" height="68" fill="white" transform="translate(16 15)"/>
</clipPath>
</defs>
</svg>
