<svg width="20" height="20" viewBox="0 0 20 20" fill="none" xmlns="http://www.w3.org/2000/svg">
<path d="M11.1859 10.0118L11.1966 10.0024L11.1859 9.99301L6.11244 5.54518L6.1042 5.55458L6.11244 5.54518C5.94261 5.39631 5.85593 5.20959 5.85201 4.98422L5.85201 4.98422C5.84807 4.75921 5.93458 4.56913 6.11244 4.41322L6.11244 4.41322C6.29044 4.25716 6.50622 4.179 6.76051 4.179C7.01481 4.179 7.23059 4.25716 7.40859 4.41322L13.0067 9.32093C13.1222 9.42219 13.2031 9.52852 13.2501 9.63979C13.2973 9.75154 13.321 9.87236 13.321 10.0024C13.321 10.1325 13.2973 10.2533 13.2501 10.365C13.2031 10.4763 13.1222 10.5826 13.0067 10.6839L13.0149 10.6933L13.0067 10.6839L7.40859 15.5916C7.23868 15.7406 7.02489 15.8171 6.76633 15.8206C6.50804 15.824 6.29035 15.7476 6.11244 15.5916L6.1042 15.601L6.11244 15.5916C5.93448 15.4356 5.846 15.2472 5.846 15.0256C5.846 14.8041 5.93448 14.6156 6.11244 14.4597L11.1859 10.0118Z" fill="black" stroke="black" stroke-width="0.025"/>
</svg>
