<svg width="24" height="24" viewBox="0 0 24 24" fill="none" xmlns="http://www.w3.org/2000/svg">
<path d="M9.58698 11.9969L15.6752 17.3343C15.8821 17.5157 15.988 17.7438 15.9928 18.0185C15.9976 18.2931 15.8917 18.5254 15.6752 18.7152C15.4586 18.9051 15.1961 19 14.8876 19C14.5791 19 14.3165 18.9051 14.1 18.7152L7.38232 12.826C7.24241 12.7033 7.14372 12.574 7.08625 12.4379C7.02875 12.3018 7 12.1548 7 11.9969C7 11.839 7.02875 11.692 7.08625 11.5559C7.14372 11.4198 7.24241 11.2905 7.38232 11.1678L14.1 5.2786C14.3069 5.09715 14.5671 5.00433 14.8804 5.00014C15.1937 4.99592 15.4586 5.08874 15.6752 5.2786C15.8917 5.46843 16 5.69858 16 5.96905C16 6.23952 15.8917 6.46967 15.6752 6.6595L9.58698 11.9969Z" fill="black"/>
</svg>
