<svg width="20" height="20" viewBox="0 0 20 20" fill="none" xmlns="http://www.w3.org/2000/svg">
<path d="M7.98907 9.99726L13.0625 14.4451C13.235 14.5963 13.3233 14.7863 13.3272 15.0152C13.3312 15.2441 13.243 15.4377 13.0625 15.5958C12.8821 15.7541 12.6633 15.8332 12.4062 15.8332C12.1491 15.8332 11.9304 15.7541 11.7499 15.5958L6.15185 10.6881C6.03526 10.5859 5.95302 10.4782 5.90512 10.3647C5.85721 10.2514 5.83325 10.1289 5.83325 9.99726C5.83325 9.86565 5.85721 9.74316 5.90512 9.62977C5.95302 9.51637 6.03526 9.40857 6.15185 9.30638L11.7499 4.39867C11.9224 4.24746 12.1392 4.17011 12.4003 4.16662C12.6613 4.16311 12.8821 4.24046 13.0625 4.39867C13.243 4.55686 13.3333 4.74866 13.3333 4.97405C13.3333 5.19943 13.243 5.39123 13.0625 5.54942L7.98907 9.99726Z" fill="black"/>
</svg>
