<svg width="120" height="120" viewBox="0 0 120 120" fill="none" xmlns="http://www.w3.org/2000/svg">
<circle cx="60" cy="60" r="60" fill="#FFF2DA"/>
<path d="M61.8911 87.0913C76.8532 87.0913 88.9824 74.9621 88.9824 60C88.9824 45.0379 76.8532 32.9087 61.8911 32.9087C46.929 32.9087 34.7998 45.0379 34.7998 60C34.7998 74.9621 46.929 87.0913 61.8911 87.0913Z" fill="black"/>
<path d="M61.8904 87.6948C46.6192 87.6948 34.1958 75.2715 34.1958 60.0002C34.1958 44.729 46.6192 32.3057 61.8904 32.3057C77.1616 32.3057 89.585 44.729 89.585 60.0002C89.585 75.2715 77.1616 87.6948 61.8904 87.6948ZM61.8904 33.5132C47.2854 33.5132 35.4033 45.3953 35.4033 60.0002C35.4033 74.6052 47.2854 86.4873 61.8904 86.4873C76.4953 86.4873 88.3774 74.6052 88.3774 60.0002C88.3774 45.3953 76.4953 33.5132 61.8904 33.5132Z" fill="black"/>
<path d="M58.1104 87.0913C73.0725 87.0913 85.2017 74.9621 85.2017 60C85.2017 45.0379 73.0725 32.9087 58.1104 32.9087C43.1482 32.9087 31.019 45.0379 31.019 60C31.019 74.9621 43.1482 87.0913 58.1104 87.0913Z" fill="#FFBE47"/>
<path d="M58.1096 87.6948C42.8384 87.6948 30.415 75.2715 30.415 60.0002C30.415 44.729 42.8384 32.3057 58.1096 32.3057C73.3808 32.3057 85.8054 44.729 85.8054 60.0002C85.8054 75.2715 73.3808 87.6948 58.1096 87.6948ZM58.1096 33.5132C43.5047 33.5132 31.6226 45.3953 31.6226 60.0002C31.6226 74.6052 43.5047 86.4873 58.1096 86.4873C72.7157 86.4873 84.5978 74.6052 84.5978 60.0002C84.5978 45.3953 72.7157 33.5132 58.1096 33.5132Z" fill="black"/>
<path d="M58.1099 81.4678C69.9662 81.4678 79.5776 71.8563 79.5776 60C79.5776 48.1437 69.9662 38.5322 58.1099 38.5322C46.2535 38.5322 36.6421 48.1437 36.6421 60C36.6421 71.8563 46.2535 81.4678 58.1099 81.4678Z" fill="#FFF2DA"/>
<path d="M58.1095 82.0721C45.9385 82.0721 36.0376 72.1711 36.0376 60.0002C36.0376 47.8292 45.9385 37.9282 58.1095 37.9282C70.2805 37.9282 80.1815 47.8292 80.1815 60.0002C80.1815 72.1711 70.2805 82.0721 58.1095 82.0721ZM58.1095 39.1358C46.6048 39.1358 37.2451 48.4954 37.2451 60.0002C37.2451 71.5049 46.6048 80.8645 58.1095 80.8645C69.6142 80.8645 78.9739 71.5049 78.9739 60.0002C78.9739 48.4954 69.6142 39.1358 58.1095 39.1358Z" fill="black"/>
<path d="M53.3027 70.5351C51.8958 70.5351 50.4877 69.9992 49.4172 68.9275L45.2684 64.7786C43.9646 63.4748 43.9646 61.3626 45.2684 60.0587C46.5723 58.7549 48.6845 58.7549 49.9883 60.0587L53.3027 63.3731L66.2316 50.4442C67.5354 49.1403 69.6477 49.1403 70.9515 50.4442C72.2553 51.748 72.2553 53.8603 70.9515 55.1641L57.1881 68.9275C56.1177 69.9992 54.7095 70.5351 53.3027 70.5351Z" fill="#FFBE47"/>
<path d="M53.302 71.1394C51.6711 71.1394 50.1393 70.5049 48.9907 69.354L44.8409 65.2054C43.3044 63.6677 43.3056 61.1677 44.8409 59.6323C46.3775 58.0957 48.8763 58.0934 50.4152 59.6323L53.302 62.5191L65.8044 50.0167C67.3398 48.4813 69.8386 48.4802 71.3787 50.0167C72.9141 51.5533 72.9141 54.0545 71.3787 55.591L57.6145 69.354C56.4659 70.5049 54.9341 71.1394 53.302 71.1394ZM47.6275 59.6854C46.8975 59.6854 46.2112 59.9696 45.6947 60.4861C44.6299 61.5509 44.6299 63.2856 45.6947 64.3516L49.8445 68.5002C50.7655 69.4236 51.9931 69.9318 53.302 69.9318C54.611 69.9318 55.8398 69.4236 56.7608 68.5002L70.5249 54.7372C71.5898 53.6712 71.5898 51.9365 70.5249 50.8705C69.4577 49.8033 67.723 49.808 66.6582 50.8705L53.7289 63.7997C53.4931 64.0356 53.111 64.0356 52.8751 63.7997L49.5615 60.4861C49.0449 59.9696 48.3586 59.6854 47.6275 59.6854Z" fill="black"/>
</svg>
