<svg width="120" height="120" viewBox="0 0 120 120" fill="none" xmlns="http://www.w3.org/2000/svg">
<circle cx="60" cy="60" r="60" fill="#FFF2DA"/>
<path d="M72.3186 36.1934C69.1637 36.1934 66.2251 37.068 63.7175 38.5863V79.1356H53.3406C54.793 80.3326 56.1566 81.3989 57.3487 82.301C60.0331 84.3255 63.7085 84.3255 66.3923 82.301C74.0941 76.4574 88.9814 63.7589 88.9814 52.8571C88.9814 43.6481 81.5276 36.1934 72.3186 36.1934Z" fill="black"/>
<path d="M61.8701 84.41C60.1461 84.4106 58.4232 83.8681 56.9857 82.7827C55.6237 81.7526 54.2687 80.6824 52.9562 79.6016C52.7605 79.4401 52.6862 79.1718 52.7723 78.9318C52.8583 78.6918 53.0859 78.5321 53.3407 78.5321H63.1142V38.5863C63.1142 38.3752 63.2251 38.1795 63.4055 38.0698C66.0848 36.4472 69.1661 35.5898 72.3183 35.5898C81.8395 35.5898 89.5848 43.3357 89.5848 52.8569C89.5848 63.8251 75.2829 76.3139 66.7569 82.7821C65.3183 83.8676 63.5942 84.41 61.8701 84.41ZM55.0423 79.7396C55.922 80.4448 56.8159 81.1411 57.7133 81.8192C60.2003 83.696 63.5423 83.6948 66.0293 81.8192C72.7475 76.7219 88.3772 63.6936 88.3772 52.8569C88.3772 44.0014 81.1732 36.7974 72.3183 36.7974C69.4999 36.7974 66.7428 37.5338 64.3218 38.9306V79.1358C64.3218 79.4696 64.0517 79.7396 63.718 79.7396H55.0423Z" fill="black"/>
<path d="M85.2617 52.8571C85.2617 63.7589 70.3744 76.4574 62.6727 82.301C59.9888 84.3255 56.3134 84.3255 53.629 82.301C45.9066 76.4574 31.0193 63.7589 31.0193 52.8571C31.0193 43.6481 38.473 36.1934 47.6825 36.1934C51.6468 36.1934 55.281 37.5776 58.1508 39.8693C61 37.5565 64.6347 36.1934 68.599 36.1934C77.808 36.1934 85.2617 43.6481 85.2617 52.8571Z" fill="#FFBE47"/>
<path d="M58.1509 84.4106C56.4268 84.4106 54.704 83.8676 53.2653 82.7832C44.7311 76.3251 30.415 63.8505 30.415 52.8569C30.415 43.3357 38.1615 35.5898 47.6827 35.5898C51.4976 35.5898 55.1061 36.8027 58.1485 39.1028C61.1143 36.8339 64.8065 35.5898 68.599 35.5898C78.1202 35.5898 85.8655 43.3357 85.8655 52.8569C85.8655 63.8269 71.5624 76.3145 63.0365 82.7821C61.599 83.8676 59.8749 84.4106 58.1509 84.4106ZM47.6827 36.7974C38.8266 36.7974 31.6226 44.0014 31.6226 52.8569C31.6226 63.719 47.2665 76.7296 53.9929 81.8192C56.4811 83.6954 59.8207 83.6954 62.3089 81.8192C69.0271 76.7219 84.658 63.6954 84.658 52.8569C84.658 44.0014 77.454 36.7974 68.599 36.7974C64.8667 36.7974 61.3856 38.022 58.5318 40.3381C58.3113 40.5173 57.994 40.5173 57.7747 40.341C54.8702 38.0226 51.3808 36.7974 47.6827 36.7974Z" fill="black"/>
</svg>
