<svg width="96" height="96" viewBox="0 0 96 96" fill="none" xmlns="http://www.w3.org/2000/svg">
<circle cx="48" cy="48" r="48" fill="#FFF2DA"/>
<path d="M64.5109 51.4931C64.5109 59.9622 57.643 66.8301 49.1739 66.8301C40.7127 66.8301 33.8447 59.9622 33.8447 51.4931C33.8447 43.024 40.7127 36.1561 49.1739 36.1561C51.4187 36.1561 53.5457 36.6427 55.4688 37.5139L56.6383 35.481C56.9444 34.9551 57.6037 34.7825 58.1297 35.0807L59.8878 36.0932C60.4058 36.3994 60.5864 37.0665 60.2803 37.5845L59.0322 39.743C62.3838 42.5609 64.5109 46.7758 64.5109 51.4931Z" fill="black"/>
<path d="M49.174 67.2224C40.5048 67.2224 33.4521 60.1659 33.4521 51.4928C33.4521 42.8198 40.5048 35.7633 49.174 35.7633C51.2996 35.7633 53.3599 36.1834 55.3038 37.0127L56.298 35.285C56.7157 34.5702 57.6041 34.3315 58.3238 34.7389L60.0845 35.753C60.7943 36.173 61.0327 37.0832 60.6188 37.7838L59.5349 39.6576C62.9513 42.6519 64.9036 46.9467 64.9036 51.4928C64.9036 60.1659 57.8471 67.2224 49.174 67.2224ZM49.174 36.5482C40.9379 36.5482 34.2371 43.2521 34.2371 51.4928C34.2371 59.7336 40.9379 66.4375 49.174 66.4375C57.4148 66.4375 64.1187 59.7336 64.1187 51.4928C64.1187 47.0686 62.1725 42.8957 58.7799 40.0435C58.6335 39.9209 58.5967 39.7112 58.6925 39.5464L59.9412 37.3879C60.1366 37.0564 60.0224 36.6283 59.6882 36.4306L57.9337 35.4203C57.5972 35.2287 57.1741 35.3406 56.9771 35.6786L55.8089 37.7095C55.7077 37.8846 55.4893 37.9551 55.3069 37.8712C53.3691 36.9932 51.3065 36.5482 49.174 36.5482Z" fill="black"/>
<path d="M57.9268 37.5845L56.6553 39.7901C56.357 40.3082 55.6899 40.4887 55.1718 40.1904L53.4136 39.1701C52.8877 38.8718 52.7151 38.2046 53.0133 37.6866L54.2849 35.481C54.5909 34.9551 55.2503 34.7825 55.7761 35.0807L57.5343 36.0932C58.0525 36.3994 58.233 37.0665 57.9268 37.5845Z" fill="#283E42"/>
<path d="M55.7111 40.7268C55.4612 40.7268 55.2083 40.6636 54.9768 40.5306L53.2169 39.5096C52.8773 39.3168 52.6313 39.0002 52.5278 38.62C52.4236 38.2368 52.4749 37.8355 52.6734 37.4906L53.9451 35.285C54.3605 34.5698 55.2481 34.3295 55.9702 34.7388L57.7301 35.7529C58.4399 36.1722 58.6783 37.0809 58.2667 37.7819L56.9958 39.986C56.7221 40.4608 56.2231 40.7268 55.7111 40.7268ZM55.2297 35.3267C54.9883 35.3267 54.756 35.4521 54.625 35.6782L53.3541 37.8823C53.2606 38.0448 53.2361 38.2333 53.2851 38.4135C53.3334 38.5905 53.4476 38.7381 53.6078 38.8289L55.3692 39.8507C55.7019 40.0423 56.1258 39.9254 56.3151 39.5939L57.5868 37.3883C57.5875 37.3871 57.5883 37.386 57.5891 37.3852C57.783 37.0564 57.6688 36.6283 57.3353 36.4309L55.58 35.4203C55.4689 35.357 55.3486 35.3267 55.2297 35.3267Z" fill="black"/>
<path d="M35.7193 37.5845L36.9908 39.7901C37.2891 40.3082 37.9562 40.4887 38.4743 40.1904L40.2325 39.1701C40.7584 38.8718 40.931 38.2046 40.6327 37.6866L39.3612 35.481C39.0552 34.9551 38.3958 34.7825 37.87 35.0807L36.1118 36.0932C35.5936 36.3994 35.4131 37.0665 35.7193 37.5845Z" fill="#283E42"/>
<path d="M37.9371 40.7274C37.8075 40.7274 37.6765 40.7102 37.5477 40.6753C37.166 40.5722 36.8479 40.3273 36.6509 39.9858L35.38 37.7821C35.1799 37.4414 35.1255 37.0424 35.2275 36.6588C35.3287 36.2774 35.5716 35.9567 35.9127 35.7551L37.6749 34.7406C38.3955 34.3309 39.2846 34.5693 39.7008 35.2837L40.9732 37.4908C41.1718 37.8358 41.2231 38.237 41.1189 38.6203C41.0154 39.0005 40.7693 39.317 40.4267 39.5113L38.6714 40.53C38.4445 40.6607 38.1923 40.7274 37.9371 40.7274ZM38.4177 35.3273C38.2981 35.3273 38.177 35.358 38.0643 35.422L36.3083 36.433C36.1496 36.5266 36.0338 36.6791 35.9856 36.86C35.938 37.0397 35.9633 37.2264 36.0576 37.385C36.0584 37.3862 36.0591 37.3873 36.0599 37.3885L37.3315 39.5937C37.4235 39.7539 37.573 39.8689 37.7524 39.9176C37.9333 39.9663 38.1187 39.9421 38.2789 39.8501L40.0358 38.8307C40.1991 38.7383 40.3133 38.5908 40.3616 38.4137C40.4106 38.2336 40.3861 38.045 40.2926 37.8825L39.0209 35.6769C38.8906 35.4523 38.6591 35.3273 38.4177 35.3273Z" fill="black"/>
<path d="M46.823 35.2548C44.4407 35.2548 42.5029 33.8019 42.5029 32.0163C42.5029 30.2308 44.4407 28.7778 46.823 28.7778C49.2053 28.7778 51.143 30.2308 51.143 32.0163C51.143 33.8019 49.2053 35.2548 46.823 35.2548ZM46.823 29.5627C44.8737 29.5627 43.2878 30.6634 43.2878 32.0163C43.2878 33.3692 44.8737 34.4699 46.823 34.4699C48.7722 34.4699 50.3581 33.3692 50.3581 32.0163C50.3581 30.6634 48.7722 29.5627 46.823 29.5627Z" fill="black"/>
<path d="M48.8722 33.8775V37.9033H44.7734V33.8775C44.7734 32.7398 45.6924 31.8208 46.8229 31.8208C47.3918 31.8208 47.9022 32.0469 48.2742 32.4261C48.6462 32.7908 48.8722 33.3086 48.8722 33.8775Z" fill="#283E42"/>
<path d="M48.8726 38.2958H44.7733C44.5564 38.2958 44.3809 38.1202 44.3809 37.9033V33.8776C44.3809 32.527 45.4762 31.4282 46.823 31.4282C47.4822 31.4282 48.0969 31.685 48.5545 32.1514C49.0037 32.5914 49.2651 33.2226 49.2651 33.8776V37.9033C49.2651 38.1202 49.0895 38.2958 48.8726 38.2958ZM45.1658 37.5109H48.4802V33.8776C48.4802 33.4323 48.3046 33.0057 47.9996 32.7068C47.6853 32.3864 47.2698 32.2131 46.823 32.2131C45.9093 32.2131 45.1658 32.9597 45.1658 33.8776V37.5109Z" fill="black"/>
<path d="M46.8227 66.8275C55.2914 66.8275 62.1566 59.9623 62.1566 51.4936C62.1566 43.0249 55.2914 36.1597 46.8227 36.1597C38.354 36.1597 31.4888 43.0249 31.4888 51.4936C31.4888 59.9623 38.354 66.8275 46.8227 66.8275Z" fill="#FFBE47"/>
<path d="M46.8232 67.2208C38.1516 67.2208 31.0967 60.1659 31.0967 51.4936C31.0967 42.822 38.1516 35.7671 46.8232 35.7671C55.4947 35.7671 62.5496 42.822 62.5496 51.4936C62.5496 60.1659 55.4947 67.2208 46.8232 67.2208ZM46.8232 36.552C38.5847 36.552 31.8816 43.2551 31.8816 51.4936C31.8816 59.7328 38.5847 66.4359 46.8232 66.4359C55.0616 66.4359 61.7647 59.7328 61.7647 51.4936C61.7647 43.2551 55.0616 36.552 46.8232 36.552Z" fill="black"/>
<path d="M46.8231 63.6884C40.0985 63.6884 34.6279 58.2178 34.6279 51.494C34.6279 44.7694 40.0985 39.2988 46.8231 39.2988C53.5469 39.2988 59.0175 44.7694 59.0175 51.494C59.0175 58.2178 53.5469 63.6884 46.8231 63.6884Z" fill="#FFF2DA"/>
<path d="M46.823 64.0812C39.8822 64.0812 34.2354 58.4351 34.2354 51.4944C34.2354 44.5536 39.8822 38.9067 46.823 38.9067C53.7637 38.9067 59.4098 44.5536 59.4098 51.4944C59.4098 58.4351 53.7637 64.0812 46.823 64.0812ZM46.823 39.6916C40.3153 39.6916 35.0203 44.9867 35.0203 51.4944C35.0203 58.002 40.3153 63.2963 46.823 63.2963C53.3306 63.2963 58.6249 58.002 58.6249 51.4944C58.6249 44.9867 53.3306 39.6916 46.823 39.6916Z" fill="black"/>
<path d="M46.8231 41.0169C46.6062 41.0169 46.4307 40.8414 46.4307 40.6245V39.2992C46.4307 39.0823 46.6062 38.9067 46.8231 38.9067C47.04 38.9067 47.2156 39.0823 47.2156 39.2992V40.6245C47.2156 40.8414 47.04 41.0169 46.8231 41.0169Z" fill="black"/>
<path d="M46.8231 64.0812C46.6062 64.0812 46.4307 63.9057 46.4307 63.6887V62.3627C46.4307 62.1457 46.6062 61.9702 46.8231 61.9702C47.04 61.9702 47.2156 62.1457 47.2156 62.3627V63.6887C47.2156 63.9057 47.04 64.0812 46.8231 64.0812Z" fill="black"/>
<path d="M40.7241 40.9375L41.3874 42.0858L40.7241 40.9375Z" fill="#283E42"/>
<path d="M41.3871 42.4781C41.2522 42.4781 41.1203 42.4076 41.0475 42.2819L40.3845 41.1344C40.2757 40.9462 40.34 40.7063 40.5278 40.5979C40.7149 40.4894 40.954 40.5526 41.0636 40.7416L41.7267 41.8894C41.8355 42.0772 41.7711 42.3171 41.5833 42.4252C41.5212 42.4612 41.4538 42.4781 41.3871 42.4781Z" fill="black"/>
<path d="M52.2559 60.9121L52.9191 62.0596L52.2559 60.9121Z" fill="#283E42"/>
<path d="M52.9193 62.4518C52.7844 62.4518 52.6526 62.3813 52.5798 62.2556L51.9167 61.1081C51.8079 60.9203 51.8723 60.6804 52.0601 60.5723C52.2479 60.4627 52.4862 60.5279 52.5958 60.7157L53.2589 61.8631C53.3677 62.0509 53.3033 62.2908 53.1155 62.3989C53.0535 62.435 52.986 62.4518 52.9193 62.4518Z" fill="black"/>
<path d="M36.2622 45.4062L37.4097 46.0687L36.2622 45.4062Z" fill="#283E42"/>
<path d="M37.4099 46.4617C37.3432 46.4617 37.2757 46.4448 37.2137 46.4088L36.0654 45.7458C35.8776 45.6377 35.8132 45.3978 35.9221 45.21C36.0302 45.0222 36.2709 44.9578 36.4579 45.0666L37.6061 45.7297C37.7939 45.8377 37.8583 46.0776 37.7495 46.2654C37.6774 46.3912 37.5448 46.4617 37.4099 46.4617Z" fill="black"/>
<path d="M56.2358 56.938L57.3842 57.6012L56.2358 56.938Z" fill="#283E42"/>
<path d="M57.3837 57.9933C57.317 57.9933 57.2496 57.9764 57.1875 57.9404L56.04 57.2781C55.8522 57.17 55.7879 56.9301 55.8967 56.7423C56.0048 56.5545 56.2447 56.4909 56.4325 56.599L57.58 57.2613C57.7678 57.3693 57.8321 57.6093 57.7233 57.7971C57.6512 57.9228 57.5186 57.9933 57.3837 57.9933Z" fill="black"/>
<path d="M35.9573 51.8992H34.6312C34.4143 51.8992 34.2388 51.7236 34.2388 51.5067C34.2388 51.2898 34.4143 51.1143 34.6312 51.1143H35.9573C36.1742 51.1143 36.3497 51.2898 36.3497 51.5067C36.3497 51.7236 36.1742 51.8992 35.9573 51.8992Z" fill="black"/>
<path d="M59.021 51.8992H57.6957C57.4788 51.8992 57.3032 51.7236 57.3032 51.5067C57.3032 51.2898 57.4788 51.1143 57.6957 51.1143H59.021C59.2379 51.1143 59.4134 51.2898 59.4134 51.5067C59.4134 51.7236 59.2379 51.8992 59.021 51.8992Z" fill="black"/>
<path d="M36.27 57.6058L37.4183 56.9434L36.27 57.6058Z" fill="#283E42"/>
<path d="M36.27 57.9983C36.1351 57.9983 36.0032 57.9278 35.9304 57.8021C35.8215 57.6143 35.8859 57.3744 36.0737 57.2663L37.2212 56.6033C37.409 56.4937 37.6474 56.558 37.757 56.7466C37.8658 56.9344 37.8014 57.1743 37.6136 57.2824L36.4662 57.9454C36.4041 57.9814 36.3366 57.9983 36.27 57.9983Z" fill="black"/>
<path d="M56.2441 46.0739L57.3917 45.4106L56.2441 46.0739Z" fill="#283E42"/>
<path d="M56.2436 46.4661C56.1087 46.4661 55.9761 46.3956 55.904 46.2699C55.7952 46.0821 55.8596 45.8421 56.0474 45.7341L57.1956 45.071C57.3826 44.9614 57.6233 45.0258 57.7314 45.2144C57.8402 45.4022 57.7758 45.6421 57.588 45.7502L56.4398 46.4132C56.3777 46.4492 56.3103 46.4661 56.2436 46.4661Z" fill="black"/>
<path d="M40.7383 62.0679L41.4007 60.9204L40.7383 62.0679Z" fill="#283E42"/>
<path d="M40.7377 62.461C40.671 62.461 40.6036 62.4441 40.5415 62.4081C40.3537 62.3 40.2893 62.0601 40.3982 61.8723L41.0612 60.7241C41.1693 60.5371 41.41 60.4727 41.597 60.5808C41.7848 60.6888 41.8492 60.9288 41.7403 61.1166L41.0773 62.2648C41.0052 62.3905 40.8726 62.461 40.7377 62.461Z" fill="black"/>
<path d="M52.27 42.0946L52.9333 40.9463L52.27 42.0946Z" fill="#283E42"/>
<path d="M52.27 42.4864C52.2033 42.4864 52.1358 42.4695 52.0737 42.4335C51.8859 42.3254 51.8215 42.0855 51.9304 41.8977L52.5934 40.7498C52.7015 40.5617 52.943 40.4996 53.1292 40.6061C53.317 40.7146 53.3814 40.9545 53.2726 41.1427L52.6095 42.2901C52.5375 42.4158 52.4049 42.4864 52.27 42.4864Z" fill="black"/>
<path d="M46.8231 57.6673C46.6062 57.6673 46.4307 57.4918 46.4307 57.2749V42.5218C46.4307 42.3049 46.6062 42.1294 46.8231 42.1294C47.04 42.1294 47.2156 42.3049 47.2156 42.5218V57.2749C47.2156 57.4918 47.04 57.6673 46.8231 57.6673Z" fill="black"/>
<path d="M46.8228 53.0894C47.7041 53.0894 48.4185 52.375 48.4185 51.4937C48.4185 50.6124 47.7041 49.8979 46.8228 49.8979C45.9415 49.8979 45.2271 50.6124 45.2271 51.4937C45.2271 52.375 45.9415 53.0894 46.8228 53.0894Z" fill="#283E42"/>
<path d="M46.8233 53.482C45.7272 53.482 44.835 52.5898 44.835 51.4937C44.835 50.3976 45.7272 49.5054 46.8233 49.5054C47.9194 49.5054 48.8116 50.3976 48.8116 51.4937C48.8116 52.5898 47.9194 53.482 46.8233 53.482ZM46.8233 50.2903C46.1595 50.2903 45.6199 50.8299 45.6199 51.4937C45.6199 52.1575 46.1595 52.6971 46.8233 52.6971C47.4871 52.6971 48.0267 52.1575 48.0267 51.4937C48.0267 50.8299 47.4871 50.2903 46.8233 50.2903Z" fill="black"/>
</svg>
