<svg width="56" height="56" viewBox="0 0 56 56" fill="none" xmlns="http://www.w3.org/2000/svg">
<g clip-path="url(#clip0_41_6608)">
<path d="M56 28C56 35.3875 53.1391 42.1068 48.4646 47.1103C43.3543 52.5805 36.0765 55.512 28 55.512C12.536 55.512 0.535706 43.464 0.535706 28C0.535706 19.924 3.41905 12.6465 8.88867 7.53616C13.8924 2.86136 20.612 0 28 0C43.464 0 56 12.536 56 28Z" fill="#FFC244"/>
<path d="M28 50.5803C40.471 50.5803 50.5807 40.4706 50.5807 27.9996C50.5807 15.5287 40.471 5.41895 28 5.41895C15.529 5.41895 5.41931 15.5287 5.41931 27.9996C5.41931 40.4706 15.529 50.5803 28 50.5803Z" fill="#FFCB61"/>
<path d="M46.9677 27.9999C46.9677 32.8321 45.1607 37.2422 42.1857 40.5915C38.7112 44.5031 33.6434 46.4729 28 46.4729C17.5244 46.4729 9.6579 38.4755 9.6579 28C9.6579 22.3601 11.4938 17.2952 15.4011 13.8208C18.7512 10.8417 23.1643 9.03223 28 9.03223C38.4756 9.03223 46.9677 17.5243 46.9677 27.9999Z" fill="#FFDD96"/>
<path d="M32.5161 28.9035L28.843 19.3534C28.546 18.5814 27.4538 18.5814 27.157 19.3534L23.4838 28.9035L18.7303 25.3383L18.1385 26.1551L21.8801 37.2441L35.7901 36.1292L38.907 26.1551C39.1685 25.3183 38.2044 24.6371 37.503 25.1631L32.5161 28.9035Z" fill="#FFAA5A"/>
<path d="M21.3103 33.5941L18.7304 25.3384L18.4969 25.1633C17.7954 24.6372 16.8313 25.3184 17.0928 26.1553L20.3781 36.6682C20.6138 37.4223 21.3123 37.9359 22.1024 37.9359H33.8978C34.688 37.9359 35.3864 37.4223 35.6221 36.6682L35.7905 36.1294H24.7589C23.1785 36.1294 21.7816 35.1024 21.3103 33.5941Z" fill="#FFAA5A"/>
</g>
<defs>
<clipPath id="clip0_41_6608">
<rect width="56" height="56" fill="white"/>
</clipPath>
</defs>
</svg>
