<svg width="96" height="96" viewBox="0 0 96 96" fill="none" xmlns="http://www.w3.org/2000/svg">
<circle cx="48" cy="48" r="48" fill="#FCEBEB"/>
<path d="M49.2285 65.6093C58.9539 65.6093 66.8379 57.7254 66.8379 48C66.8379 38.2746 58.9539 30.3906 49.2285 30.3906C39.5031 30.3906 31.6191 38.2746 31.6191 48C31.6191 57.7254 39.5031 65.6093 49.2285 65.6093Z" fill="black"/>
<path d="M49.2285 66.0015C39.3026 66.0015 31.2271 57.9263 31.2271 48C31.2271 38.0737 39.3026 29.9985 49.2285 29.9985C59.1548 29.9985 67.2304 38.0737 67.2304 48C67.2304 57.9263 59.1548 66.0015 49.2285 66.0015ZM49.2285 30.7834C39.7353 30.7834 32.012 38.5068 32.012 48C32.012 57.4932 39.7353 65.2166 49.2285 65.2166C58.7221 65.2166 66.4455 57.4932 66.4455 48C66.4455 38.5068 58.7221 30.7834 49.2285 30.7834Z" fill="black"/>
<path d="M46.771 65.6093C56.4964 65.6093 64.3803 57.7254 64.3803 48C64.3803 38.2746 56.4964 30.3906 46.771 30.3906C37.0456 30.3906 29.1616 38.2746 29.1616 48C29.1616 57.7254 37.0456 65.6093 46.771 65.6093Z" fill="#FF3E3E"/>
<path d="M46.7715 66.0015C36.8456 66.0015 28.77 57.9263 28.77 48C28.77 38.0737 36.8456 29.9985 46.7715 29.9985C56.6974 29.9985 64.773 38.0737 64.773 48C64.773 57.9263 56.6974 66.0015 46.7715 66.0015ZM46.7715 30.7834C37.2783 30.7834 29.5549 38.5068 29.5549 48C29.5549 57.4932 37.2783 65.2166 46.7715 65.2166C56.2647 65.2166 63.9881 57.4932 63.9881 48C63.9881 38.5068 56.2647 30.7834 46.7715 30.7834Z" fill="black"/>
<path d="M46.7709 61.954C54.4776 61.954 60.725 55.7066 60.725 48C60.725 40.2933 54.4776 34.0459 46.7709 34.0459C39.0643 34.0459 32.8169 40.2933 32.8169 48C32.8169 55.7066 39.0643 61.954 46.7709 61.954Z" fill="#FCEBEB"/>
<path d="M46.7711 62.3468C38.8603 62.3468 32.4243 55.9112 32.4243 48.0001C32.4243 40.0889 38.8603 33.6533 46.7711 33.6533C54.6818 33.6533 61.1178 40.0889 61.1178 48.0001C61.1178 55.9112 54.6818 62.3468 46.7711 62.3468ZM46.7711 34.4382C39.293 34.4382 33.2092 40.522 33.2092 48.0001C33.2092 55.4781 39.293 61.5619 46.7711 61.5619C54.2491 61.5619 60.3329 55.4781 60.3329 48.0001C60.3329 40.522 54.2491 34.4382 46.7711 34.4382Z" fill="black"/>
<path d="M53.541 52.0806C54.2817 52.8211 54.2817 54.027 53.541 54.7676C53.1707 55.138 52.6865 55.3278 52.2023 55.3278C51.7085 55.3278 51.2243 55.138 50.854 54.7676L46.7711 50.6848L42.6883 54.7676C42.318 55.138 41.8338 55.3278 41.3496 55.3278C40.8558 55.3278 40.3715 55.138 40.0012 54.7676C39.2607 54.027 39.2607 52.8211 40.0012 52.0806L44.0841 47.9977L40.0012 43.9149C39.2607 43.1742 39.2607 41.9684 40.0012 41.2278C40.7419 40.4872 41.9477 40.4872 42.6883 41.2278L46.7711 45.3106L50.854 41.2278C51.5946 40.4872 52.8005 40.4872 53.541 41.2278C54.2817 41.9684 54.2817 43.1742 53.541 43.9149L49.4582 47.9977L53.541 52.0806Z" fill="#FF3E3E"/>
<path d="M52.2023 55.7203C51.5895 55.7203 51.0119 55.4803 50.5765 55.045L46.7712 51.24L42.9659 55.045C42.0909 55.9203 40.5905 55.9111 39.7239 55.045C39.2916 54.6126 39.0532 54.037 39.0532 53.4238C39.0532 52.8114 39.2916 52.2357 39.7239 51.8034L43.5293 47.9977L39.7239 44.1927C39.2916 43.7604 39.0532 43.184 39.0532 42.5716C39.0532 41.9583 39.2916 41.3827 39.7239 40.9504C40.6177 40.0566 42.0721 40.0566 42.9659 40.9504L46.7712 44.7561L50.5765 40.9504C51.4695 40.0566 52.924 40.0559 53.8185 40.9504C54.2508 41.3827 54.4892 41.9583 54.4892 42.5716C54.4892 43.184 54.2508 43.7604 53.8185 44.1927L50.0132 47.9977L53.8185 51.8034C54.2508 52.2357 54.4892 52.8114 54.4892 53.4238C54.4892 54.037 54.2508 54.6126 53.8185 55.045C53.3831 55.4803 52.809 55.7203 52.2023 55.7203ZM46.7712 50.2926C46.8716 50.2926 46.972 50.3309 47.0487 50.4076L51.1315 54.49C51.701 55.0603 52.6848 55.0695 53.2635 54.49C53.5475 54.2056 53.7043 53.8277 53.7043 53.4238C53.7043 53.0206 53.5475 52.6427 53.2635 52.3583L49.1807 48.2751C49.1071 48.2016 49.0658 48.1019 49.0658 47.9977C49.0658 47.8934 49.1071 47.7938 49.1807 47.7202L53.2635 43.6378C53.5475 43.3534 53.7043 42.9747 53.7043 42.5716C53.7043 42.1676 53.5475 41.7897 53.2635 41.5053C52.676 40.919 51.7198 40.9174 51.1315 41.5053L47.0487 45.5885C46.9015 45.7357 46.6409 45.7357 46.4937 45.5885L42.4109 41.5053C41.8234 40.919 40.8672 40.9174 40.2789 41.5053C39.9949 41.7897 39.8381 42.1676 39.8381 42.5716C39.8381 42.9747 39.9949 43.3534 40.2789 43.6378L44.3617 47.7202C44.4353 47.7938 44.4767 47.8934 44.4767 47.9977C44.4767 48.1019 44.4353 48.2016 44.3617 48.2751L40.2789 52.3583C39.9949 52.6427 39.8381 53.0206 39.8381 53.4238C39.8381 53.8277 39.9949 54.2056 40.2789 54.49C40.8484 55.0603 41.8322 55.0695 42.4109 54.49L46.4937 50.4076C46.5704 50.3309 46.6708 50.2926 46.7712 50.2926Z" fill="black"/>
</svg>
