<svg width="24" height="24" viewBox="0 0 24 24" fill="none" xmlns="http://www.w3.org/2000/svg">
<path d="M6 17.0125H6.0125V17V10C6.0125 8.61939 6.42828 7.39293 7.25988 6.32016C8.09148 5.2474 9.17239 4.54479 10.503 4.21213L10.5125 4.20976V4.2V3.5C10.5125 3.08661 10.657 2.73563 10.9463 2.44634C11.2356 2.15704 11.5866 2.0125 12 2.0125C12.4134 2.0125 12.7644 2.15704 13.0537 2.44634C13.343 2.73563 13.4875 3.08661 13.4875 3.5V4.2V4.20976L13.497 4.21213C14.8276 4.54479 15.9085 5.2474 16.7401 6.32016C17.5717 7.39293 17.9875 8.61939 17.9875 10V17V17.0125H18H19C19.2802 17.0125 19.5145 17.1071 19.7037 17.2963C19.8929 17.4855 19.9875 17.7198 19.9875 18C19.9875 18.2802 19.8929 18.5145 19.7037 18.7037C19.5145 18.8929 19.2802 18.9875 19 18.9875H5C4.71981 18.9875 4.48555 18.8929 4.29634 18.7037C4.10713 18.5145 4.0125 18.2802 4.0125 18C4.0125 17.7198 4.10713 17.4855 4.29634 17.2963C4.48555 17.1071 4.71981 17.0125 5 17.0125H6ZM7.9875 17V17.0125H8H16H16.0125V17V10C16.0125 8.89666 15.6195 7.95182 14.8338 7.16616C14.0482 6.3805 13.1033 5.9875 12 5.9875C10.8967 5.9875 9.95182 6.3805 9.16616 7.16616C8.3805 7.95182 7.9875 8.89666 7.9875 10V17ZM12 21.9875C11.4533 21.9875 10.9857 21.793 10.5963 21.4037C10.21 21.0173 10.0155 20.5538 10.0125 20.0125H13.9875C13.9845 20.5538 13.79 21.0173 13.4037 21.4037C13.0143 21.793 12.5467 21.9875 12 21.9875Z" fill="black" stroke="black" stroke-width="0.025"/>
</svg>
