<svg width="120" height="120" viewBox="0 0 120 120" fill="none" xmlns="http://www.w3.org/2000/svg">
<circle cx="60" cy="60" r="60" fill="#FFF2DA"/>
<path d="M54.3248 76.1855C54.0769 76.6716 53.9395 77.1854 53.9395 77.7186C53.9395 80.6764 58.0379 83.0741 63.0937 83.0741C68.1494 83.0741 72.2479 80.6764 72.2479 77.7186C72.2479 77.1854 72.1104 76.6716 71.8625 76.1855H54.3248Z" fill="black"/>
<path d="M49.7349 76.1855C49.4871 76.6716 49.3496 77.1854 49.3496 77.7186C49.3496 80.6764 53.4481 83.0741 58.5038 83.0741C63.5596 83.0741 67.658 80.6764 67.658 77.7186C67.658 77.1854 67.5206 76.6716 67.2727 76.1855H49.7349Z" fill="#FFBE47"/>
<path d="M58.5031 83.8392C52.9413 83.8392 48.584 81.151 48.584 77.7186C48.584 77.0806 48.7424 76.447 49.0532 75.8373C49.1847 75.5818 49.4477 75.4204 49.7346 75.4204H67.2731C67.5615 75.4204 67.8245 75.5818 67.956 75.8388C68.2653 76.45 68.4222 77.0821 68.4222 77.7186C68.4222 81.151 64.0648 83.8392 58.5031 83.8392ZM50.2412 76.9506C50.156 77.2061 50.1141 77.4631 50.1141 77.7186C50.1141 80.2066 53.956 82.3091 58.5031 82.3091C63.0502 82.3091 66.892 80.2066 66.892 77.7186C66.892 77.4646 66.8502 77.2076 66.765 76.9506H50.2412Z" fill="black"/>
<path d="M70.635 42.2673C70.7536 41.8779 70.8349 41.4768 70.8349 41.0576C70.8349 38.27 68.054 36.0103 64.6235 36.0103C61.193 36.0103 58.4121 38.27 58.4121 41.0576C58.4121 41.4768 58.4934 41.8779 58.612 42.2673H70.635Z" fill="black"/>
<path d="M64.5149 42.2673C64.6335 41.8779 64.7148 41.4768 64.7148 41.0576C64.7148 38.27 61.9339 36.0103 58.5034 36.0103C55.0729 36.0103 52.292 38.27 52.292 41.0576C52.292 41.4768 52.3732 41.8779 52.4919 42.2673H64.5149Z" fill="#FFBE47"/>
<path d="M64.5147 43.0319H52.4916C52.1539 43.0319 51.8566 42.8107 51.7594 42.4879C51.604 41.9739 51.5278 41.5062 51.5278 41.0579C51.5278 37.8527 54.6569 35.2451 58.5032 35.2451C62.3495 35.2451 65.48 37.8527 65.48 41.0579C65.48 41.5092 65.4038 41.9784 65.2469 42.4909C65.1483 42.8122 64.8509 43.0319 64.5147 43.0319ZM53.0953 41.5017H63.9125C63.9379 41.3478 63.9499 41.2014 63.9499 41.0579C63.9499 38.6969 61.5067 36.7753 58.5032 36.7753C55.5012 36.7753 53.058 38.6969 53.058 41.0579C53.058 41.2014 53.0699 41.3478 53.0953 41.5017Z" fill="black"/>
<path d="M81.9965 72.6215H44.5215C47.8531 64.6114 49.6725 56.1996 49.9915 47.4097C50.1215 43.6173 53.1813 40.5811 56.9856 40.5811H69.5442C73.3484 40.5811 76.4084 43.6173 76.5383 47.4097C76.8573 56.1996 78.6767 64.6114 81.9965 72.6215Z" fill="black"/>
<path d="M77.4062 72.6215H39.9312C43.2628 64.6114 45.0822 56.1996 45.4012 47.4097C45.5311 43.6173 48.591 40.5811 52.3953 40.5811H64.9539C68.7581 40.5811 71.818 43.6173 71.948 47.4097C72.267 56.1996 74.0864 64.6114 77.4062 72.6215Z" fill="#FFBE47"/>
<path d="M77.4072 73.3867H39.9319C39.6764 73.3867 39.4373 73.2596 39.2953 73.046C39.1534 72.8338 39.128 72.5633 39.2251 72.3272C42.5021 64.4478 44.3221 56.0544 44.6359 47.3815C44.7824 43.1407 48.1909 39.8159 52.3958 39.8159H64.9538C69.1587 39.8159 72.5672 43.1407 72.7137 47.383C73.0275 56.0454 74.8445 64.4388 78.114 72.3287C78.2112 72.5648 78.1858 72.8338 78.0438 73.046C77.9018 73.2596 77.6628 73.3867 77.4072 73.3867ZM41.0691 71.8565H76.2716C73.2008 64.1071 71.4898 55.8975 71.1835 47.4383C71.067 44.0209 68.3309 41.3461 64.9538 41.3461H52.3958C49.0187 41.3461 46.2827 44.0209 46.1661 47.4368C45.8583 55.9064 44.1443 64.1161 41.0691 71.8565Z" fill="black"/>
<path d="M84.3791 75.17C84.3791 75.8786 84.0934 76.5185 83.6363 76.9757C83.1677 77.4327 82.5392 77.7185 81.8307 77.7185H44.3581C42.9409 77.7185 41.8096 76.5871 41.8096 75.17C41.8096 74.4729 42.0953 73.8329 42.5524 73.3644C43.0095 72.9073 43.6495 72.6216 44.3581 72.6216H81.8307C83.2363 72.6216 84.3791 73.7644 84.3791 75.17Z" fill="black"/>
<path d="M79.7893 75.17C79.7893 75.8786 79.5036 76.5185 79.0465 76.9757C78.5779 77.4327 77.9494 77.7185 77.2408 77.7185H39.7682C38.3511 77.7185 37.2197 76.5871 37.2197 75.17C37.2197 74.4729 37.5054 73.8329 37.9626 73.3644C38.4197 72.9073 39.0597 72.6216 39.7682 72.6216H77.2408C78.6465 72.6216 79.7893 73.7644 79.7893 75.17Z" fill="#FFF2DA"/>
<path d="M77.2398 78.4836H39.7675C37.9399 78.4836 36.4531 76.9968 36.4531 75.1693C36.4531 74.2936 36.7938 73.4628 37.414 72.8292C38.0431 72.2001 38.8769 71.8564 39.7675 71.8564H77.2398C79.0658 71.8564 80.5526 73.3433 80.5526 75.1693C80.5526 76.0599 80.209 76.8937 79.5858 77.5168C78.9463 78.1429 78.1154 78.4836 77.2398 78.4836ZM39.7675 73.3866C39.2863 73.3866 38.8365 73.5704 38.5018 73.9051C38.1701 74.2458 37.9833 74.6956 37.9833 75.1693C37.9833 76.1705 38.7663 76.9535 39.7675 76.9535H77.2398C77.7135 76.9535 78.1633 76.7667 78.5099 76.429C78.8387 76.1002 79.0225 75.6504 79.0225 75.1693C79.0225 74.186 78.223 73.3866 77.2398 73.3866H39.7675Z" fill="black"/>
</svg>
