<svg width="120" height="120" viewBox="0 0 120 120" fill="none" xmlns="http://www.w3.org/2000/svg">
<circle cx="60" cy="60" r="60" fill="#FFF2DA"/>
<path d="M81.8365 32.9009H68.6565V87.0992H81.8365C85.785 87.0992 88.9854 83.8989 88.9854 79.9631V40.037C88.9854 36.0883 85.785 32.9009 81.8365 32.9009Z" fill="black"/>
<path d="M81.8367 87.703H68.6563C68.3225 87.703 68.0525 87.433 68.0525 87.0993V32.9011C68.0525 32.5674 68.3225 32.2974 68.6563 32.2974H81.8367C86.1115 32.2974 89.589 35.7697 89.589 40.0373V79.9636C89.589 84.2313 86.1115 87.703 81.8367 87.703ZM69.26 86.4955H81.8367C85.4452 86.4955 88.3815 83.5651 88.3815 79.9636V40.0373C88.3815 36.4353 85.4452 33.5049 81.8367 33.5049H69.26V86.4955Z" fill="black"/>
<path d="M85.2333 40.0365V79.958C85.2333 83.8946 82.0333 87.0946 78.0847 87.0946H38.1631C34.2144 87.0946 31.0144 83.8946 31.0144 79.958V40.0365C31.0144 36.0878 34.2144 32.8999 38.1631 32.8999H78.0847C82.0333 32.8999 85.2333 36.0878 85.2333 40.0365Z" fill="#FFBE47"/>
<path d="M78.0842 87.6985H38.1632C33.8885 87.6985 30.4109 84.2256 30.4109 79.9579V40.0364C30.4109 35.7687 33.8885 32.2964 38.1632 32.2964H78.0842C82.359 32.2964 85.8366 35.7687 85.8366 40.0364V79.9579C85.8366 84.2256 82.359 87.6985 78.0842 87.6985ZM38.1632 33.5039C34.5548 33.5039 31.6184 36.4344 31.6184 40.0364V79.9579C31.6184 83.5605 34.5548 86.491 38.1632 86.491H78.0842C81.6927 86.491 84.629 83.5605 84.629 79.9579V40.0364C84.629 36.4344 81.6927 33.5039 78.0842 33.5039H38.1632Z" fill="black"/>
<path d="M38.1631 82.2647C36.8848 82.2647 35.8447 81.2305 35.8447 79.9581V40.0371C35.8447 38.7647 36.8848 37.7305 38.1631 37.7305H78.0841C79.3624 37.7305 80.4025 38.7647 80.4025 40.0371V79.9581C80.4025 81.2305 79.3624 82.2647 78.0841 82.2647H38.1631Z" fill="#FFF2DA"/>
<path d="M78.0841 82.8682H38.1631C36.5523 82.8682 35.241 81.5628 35.241 79.9578V40.0368C35.241 38.4319 36.5523 37.1265 38.1631 37.1265H78.0841C79.695 37.1265 81.0063 38.4319 81.0063 40.0368V79.9578C81.0063 81.5628 79.695 82.8682 78.0841 82.8682ZM38.1631 38.334C37.2174 38.334 36.4485 39.0982 36.4485 40.0368V79.9578C36.4485 80.8965 37.2174 81.6607 38.1631 81.6607H78.0841C79.0299 81.6607 79.7988 80.8965 79.7988 79.9578V40.0368C79.7988 39.0982 79.0299 38.334 78.0841 38.334H38.1631Z" fill="black"/>
<path d="M75.5729 44.0574V48.9118C75.5729 49.745 74.9087 50.4091 74.0756 50.4091H55.5357C54.7145 50.4091 54.0383 49.745 54.0383 48.9118V44.0574C54.0383 43.2242 54.7145 42.5601 55.5357 42.5601H74.0756C74.9087 42.5601 75.5729 43.2242 75.5729 44.0574Z" fill="#FFBE47"/>
<path d="M74.0761 51.0131H55.536C54.3768 51.0131 53.4346 50.0703 53.4346 48.9117V44.0574C53.4346 42.8988 54.3768 41.9565 55.536 41.9565H74.0761C75.2341 41.9565 76.1763 42.8988 76.1763 44.0574V48.9117C76.1763 50.0703 75.2341 51.0131 74.0761 51.0131ZM55.536 43.1641C55.0431 43.1641 54.6421 43.565 54.6421 44.0574V48.9117C54.6421 49.4047 55.0431 49.8056 55.536 49.8056H74.0761C74.5761 49.8056 74.9688 49.4129 74.9688 48.9117V44.0574C74.9688 43.5562 74.5761 43.1641 74.0761 43.1641H55.536Z" fill="black"/>
<path d="M75.5729 57.5701V62.4245C75.5729 63.2577 74.9087 63.9218 74.0756 63.9218H55.5357C54.7145 63.9218 54.0383 63.2577 54.0383 62.4245V57.5701C54.0383 56.7369 54.7145 56.0728 55.5357 56.0728H74.0756C74.9087 56.0728 75.5729 56.7369 75.5729 57.5701Z" fill="#FFBE47"/>
<path d="M74.0761 64.5249H55.536C54.3768 64.5249 53.4346 63.5826 53.4346 62.4246V57.5697C53.4346 56.4105 54.3768 55.4683 55.536 55.4683H74.0761C75.2341 55.4683 76.1763 56.4105 76.1763 57.5697V62.4246C76.1763 63.5826 75.2341 64.5249 74.0761 64.5249ZM55.536 56.6758C55.0431 56.6758 54.6421 57.0768 54.6421 57.5697V62.4246C54.6421 62.9164 55.0431 63.3173 55.536 63.3173H74.0761C74.5761 63.3173 74.9688 62.9246 74.9688 62.4246V57.5697C74.9688 57.0685 74.5761 56.6758 74.0761 56.6758H55.536Z" fill="black"/>
<path d="M75.5729 71.0828V75.9372C75.5729 76.7704 74.9087 77.4345 74.0756 77.4345H55.5357C54.7145 77.4345 54.0383 76.7704 54.0383 75.9372V71.0828C54.0383 70.2496 54.7145 69.5854 55.5357 69.5854H74.0756C74.9087 69.5854 75.5729 70.2496 75.5729 71.0828Z" fill="#FFBE47"/>
<path d="M74.0761 78.038H55.536C54.3768 78.038 53.4346 77.0958 53.4346 75.9366V71.0829C53.4346 69.9237 54.3768 68.9814 55.536 68.9814H74.0761C75.2341 68.9814 76.1763 69.9237 76.1763 71.0829V75.9366C76.1763 77.0958 75.2341 78.038 74.0761 78.038ZM55.536 70.189C55.0431 70.189 54.6421 70.5899 54.6421 71.0829V75.9366C54.6421 76.4296 55.0431 76.8305 55.536 76.8305H74.0761C74.5761 76.8305 74.9688 76.4378 74.9688 75.9366V71.0829C74.9688 70.5817 74.5761 70.189 74.0761 70.189H55.536Z" fill="black"/>
<path d="M48.8821 44.0574V48.9118C48.8821 49.745 48.2179 50.4091 47.3848 50.4091H42.1722C41.351 50.4091 40.6748 49.745 40.6748 48.9118V44.0574C40.6748 43.2242 41.351 42.5601 42.1722 42.5601H47.3848C48.2179 42.5601 48.8821 43.2242 48.8821 44.0574Z" fill="#FFBE47"/>
<path d="M47.385 51.0131H42.1715C41.0135 51.0131 40.0713 50.0703 40.0713 48.9117V44.0574C40.0713 42.8988 41.0135 41.9565 42.1715 41.9565H47.385C48.543 41.9565 49.4852 42.8988 49.4852 44.0574V48.9117C49.4852 50.0703 48.543 51.0131 47.385 51.0131ZM42.1715 43.1641C41.6798 43.1641 41.2788 43.565 41.2788 44.0574V48.9117C41.2788 49.4047 41.6798 49.8056 42.1715 49.8056H47.385C47.885 49.8056 48.2777 49.4129 48.2777 48.9117V44.0574C48.2777 43.5562 47.885 43.1641 47.385 43.1641H42.1715Z" fill="black"/>
<path d="M48.8821 57.5701V62.4245C48.8821 63.2577 48.2179 63.9218 47.3848 63.9218H42.1722C41.351 63.9218 40.6748 63.2577 40.6748 62.4245V57.5701C40.6748 56.7369 41.351 56.0728 42.1722 56.0728H47.3848C48.2179 56.0728 48.8821 56.7369 48.8821 57.5701Z" fill="#FFBE47"/>
<path d="M47.385 64.5249H42.1715C41.0135 64.5249 40.0713 63.5826 40.0713 62.4246V57.5697C40.0713 56.4105 41.0135 55.4683 42.1715 55.4683H47.385C48.543 55.4683 49.4852 56.4105 49.4852 57.5697V62.4246C49.4852 63.5826 48.543 64.5249 47.385 64.5249ZM42.1715 56.6758C41.6798 56.6758 41.2788 57.0768 41.2788 57.5697V62.4246C41.2788 62.9164 41.6798 63.3173 42.1715 63.3173H47.385C47.885 63.3173 48.2777 62.9246 48.2777 62.4246V57.5697C48.2777 57.0685 47.885 56.6758 47.385 56.6758H42.1715Z" fill="black"/>
<path d="M48.8821 71.0828V75.9372C48.8821 76.7704 48.2179 77.4345 47.3848 77.4345H42.1722C41.351 77.4345 40.6748 76.7704 40.6748 75.9372V71.0828C40.6748 70.2496 41.351 69.5854 42.1722 69.5854H47.3848C48.2179 69.5854 48.8821 70.2496 48.8821 71.0828Z" fill="#FFBE47"/>
<path d="M47.385 78.038H42.1715C41.0135 78.038 40.0713 77.0958 40.0713 75.9366V71.0829C40.0713 69.9237 41.0135 68.9814 42.1715 68.9814H47.385C48.543 68.9814 49.4852 69.9237 49.4852 71.0829V75.9366C49.4852 77.0958 48.543 78.038 47.385 78.038ZM42.1715 70.189C41.6798 70.189 41.2788 70.5899 41.2788 71.0829V75.9366C41.2788 76.4296 41.6798 76.8305 42.1715 76.8305H47.385C47.885 76.8305 48.2777 76.4378 48.2777 75.9366V71.0829C48.2777 70.5817 47.885 70.189 47.385 70.189H42.1715Z" fill="black"/>
</svg>
