<?xml version="1.0" encoding="UTF-8"?>
<svg version="1.1" xmlns="http://www.w3.org/2000/svg" width="200" height="200">
<path d="M0 0 C66 0 132 0 200 0 C200 66 200 132 200 200 C134 200 68 200 0 200 C0 134 0 68 0 0 Z " fill="#FEFEFE" transform="translate(0,0)"/>
<path d="M0 0 C-2.21770433 9.60135522 -4.50996448 19.18384447 -6.875 28.75 C-7.09494629 29.65105469 -7.31489258 30.55210938 -7.54150391 31.48046875 C-9.15237089 37.95536825 -10.94891501 44.36716769 -12.796875 50.77734375 C-16.15027482 62.41357019 -19.27371185 74.10699342 -22.375 85.8125 C-22.92560281 87.88481304 -23.47638331 89.95707888 -24.02734375 92.02929688 C-25.35392354 97.01891003 -26.67689643 102.00945886 -28 107 C-34.6 107 -41.2 107 -48 107 C-47.23791623 102.42749737 -46.3111689 98.03686157 -45.14453125 93.56640625 C-44.9622699 92.85969788 -44.78000854 92.1529895 -44.59222412 91.42486572 C-44.00144591 89.1367654 -43.40702523 86.84962929 -42.8125 84.5625 C-42.40400907 82.98337044 -41.99572581 81.40418715 -41.58764648 79.82495117 C-39.02468351 69.9145859 -36.44900024 60.00741851 -33.8527832 50.10571289 C-32.53526595 45.07833162 -31.25091524 40.04438844 -30 35 C-30.70382813 35.47308594 -31.40765625 35.94617188 -32.1328125 36.43359375 C-37.91726714 40.30751702 -43.72136931 44.14959199 -49.5625 47.9375 C-50.15756348 48.32671631 -50.75262695 48.71593262 -51.36572266 49.11694336 C-53.90178052 50.75413145 -56.12135603 52.04045201 -59 53 C-58.56881521 51.16517111 -58.12967947 49.33221033 -57.6875 47.5 C-57.44386719 46.4790625 -57.20023437 45.458125 -56.94921875 44.40625 C-56.63597656 43.2821875 -56.32273437 42.158125 -56 41 C-55.82839355 40.33339355 -55.65678711 39.66678711 -55.47998047 38.97998047 C-53.70592144 33.13996994 -50.99710708 30.99027839 -45.75 28.125 C-44.29034981 27.2717801 -42.8320445 26.41625582 -41.375 25.55859375 C-40.63894531 25.13304199 -39.90289062 24.70749023 -39.14453125 24.26904297 C-35.92775199 22.36548894 -32.84133856 20.28657276 -29.75 18.1875 C-28.53315574 17.37019428 -27.31568604 16.55381912 -26.09765625 15.73828125 C-25.45586426 15.30854004 -24.81407227 14.87879883 -24.15283203 14.43603516 C-19.8443222 11.56206659 -15.51902308 8.71413335 -11.1875 5.875 C-10.30868164 5.29387451 -9.42986328 4.71274902 -8.52441406 4.11401367 C-7.70553711 3.57881104 -6.88666016 3.0436084 -6.04296875 2.4921875 C-5.31102295 2.01120605 -4.57907715 1.53022461 -3.82495117 1.03466797 C-2 0 -2 0 0 0 Z " fill="#3495FA" transform="translate(147,47)"/>
<path d="M0 0 C-2.15461631 8.80080891 -4.39779739 17.57324846 -6.76171875 26.3203125 C-7.11908615 27.64298126 -7.11908615 27.64298126 -7.4836731 28.99237061 C-8.46841906 32.63191255 -9.45524643 36.27088208 -10.44458008 39.90917969 C-11.17780359 42.60805104 -11.90747469 45.30786361 -12.63671875 48.0078125 C-12.85962082 48.82347687 -13.08252289 49.63914124 -13.31217957 50.47952271 C-13.62304253 51.63265457 -13.62304253 51.63265457 -13.94018555 52.80908203 C-14.12131393 53.47585968 -14.30244232 54.14263733 -14.48905945 54.82962036 C-15.12372499 57.52556055 -15.54467434 60.26804605 -16 63 C-29.53 63 -43.06 63 -57 63 C-53.7216416 36.77313281 -53.7216416 36.77313281 -47.71875 29.07421875 C-44.91611504 27.03555506 -42.10974889 25.52845667 -39 24 C-37.17162771 22.90535516 -35.37683018 21.76560442 -33.58007812 20.61987305 C-31.58661543 19.35055907 -29.5756258 18.11284511 -27.5625 16.875 C-21.20370267 12.91639272 -15.01901419 8.68848058 -8.83056641 4.47021484 C-7.97124512 3.88965332 -7.11192383 3.3090918 -6.2265625 2.7109375 C-5.45908691 2.18806152 -4.69161133 1.66518555 -3.90087891 1.12646484 C-2 0 -2 0 0 0 Z " fill="#0B2955" transform="translate(110,92)"/>
<path d="M0 0 C1.28810424 3.86431273 0.26672212 6.42238786 -0.84375 10.18359375 C-1.15064758 11.26301491 -1.15064758 11.26301491 -1.46374512 12.36424255 C-1.90541172 13.91577184 -2.3507396 15.46626257 -2.79931641 17.01580811 C-3.97813643 21.09002779 -5.12990633 25.17185129 -6.28125 29.25390625 C-6.51352295 30.07572388 -6.7457959 30.8975415 -6.98510742 31.7442627 C-9.46405725 40.56348612 -11.68006332 49.4394487 -13.84179688 58.34155273 C-14.10025391 59.40188721 -14.35871094 60.46222168 -14.625 61.5546875 C-14.84414062 62.46718262 -15.06328125 63.37967773 -15.2890625 64.31982422 C-16.0662401 67.24971971 -17.04144418 70.12433253 -18 73 C-11.4 73 -4.8 73 2 73 C2 73.33 2 73.66 2 74 C-1.41659491 74.05816623 -4.83306205 74.09365195 -8.25 74.125 C-9.70212891 74.15013672 -9.70212891 74.15013672 -11.18359375 74.17578125 C-12.58544922 74.18544922 -12.58544922 74.18544922 -14.015625 74.1953125 C-14.87446289 74.20578613 -15.73330078 74.21625977 -16.61816406 74.22705078 C-19.17903596 73.98293323 -20.79511029 73.28990512 -23 72 C-22.31881346 66.37442828 -21.08117305 61.0260811 -19.63671875 55.55078125 C-19.4034639 54.65691208 -19.17020905 53.76304291 -18.92988586 52.84208679 C-18.43670457 50.956477 -17.94156536 49.07137833 -17.44458008 47.18676758 C-16.69479842 44.34020856 -15.95341344 41.49155793 -15.21289062 38.64257812 C-12.77052897 29.30518266 -10.20858203 20.10749532 -7 11 C-15.91 16.94 -15.91 16.94 -25 23 C-26.32 21.68 -27.64 20.36 -29 19 C-27.91203125 18.29875 -26.8240625 17.5975 -25.703125 16.875 C-17.08974071 11.31642528 -8.50703464 5.72053004 0 0 Z " fill="#E4F1F6" transform="translate(117,81)"/>
<path d="M0 0 C0.33 0 0.66 0 1 0 C1.125 5.75 1.125 5.75 0 8 C-0.34398466 10.41656449 -0.65603406 12.82613631 -0.9375 15.25 C-1.52752474 20.26768942 -2.37776687 24.1333006 -4 29 C2.6 29 9.2 29 16 29 C16 29.33 16 29.66 16 30 C12.58340509 30.05816623 9.16693795 30.09365195 5.75 30.125 C4.29787109 30.15013672 4.29787109 30.15013672 2.81640625 30.17578125 C1.41455078 30.18544922 1.41455078 30.18544922 -0.015625 30.1953125 C-0.87446289 30.20578613 -1.73330078 30.21625977 -2.61816406 30.22705078 C-5.17903596 29.98293323 -6.79511029 29.28990512 -9 28 C-8.48539709 23.47149436 -7.63809462 19.06988633 -6.625 14.625 C-6.39039062 13.58601562 -6.15578125 12.54703125 -5.9140625 11.4765625 C-5.61242187 10.65929687 -5.31078125 9.84203125 -5 9 C-4.01 8.67 -3.02 8.34 -2 8 C-1.855625 6.865625 -1.71125 5.73125 -1.5625 4.5625 C-1 1 -1 1 0 0 Z " fill="#D7EAF2" transform="translate(103,125)"/>
<path d="M0 0 C-0.62428218 2.66683649 -1.24940826 5.33347067 -1.875 8 C-2.04902344 8.74378906 -2.22304687 9.48757812 -2.40234375 10.25390625 C-3.55902782 15.18052359 -4.76213258 20.09313816 -6 25 C-8 22 -8 22 -8 20 C-7.34 20 -6.68 20 -6 20 C-6.0309375 18.2984375 -6.0309375 18.2984375 -6.0625 16.5625 C-6 13 -6 13 -5 12 C-4.63239269 9.67182036 -4.29758419 7.3381615 -4 5 C-8.23084903 6.68807908 -8.23084903 6.68807908 -11 10 C-11.99 10 -12.98 10 -14 10 C-14.33 10.99 -14.66 11.98 -15 13 C-16.70016049 13.78468946 -18.40668782 14.56080903 -20.15234375 15.23828125 C-22.21977006 16.03698152 -22.21977006 16.03698152 -24.8125 17.6875 C-27 19 -27 19 -29 19 C-29.33 19.99 -29.66 20.98 -30 22 C-33 24 -33 24 -35.1875 23.625 C-36.0846875 23.315625 -36.0846875 23.315625 -37 23 C-28.42653283 17.24538491 -19.82184242 11.5378742 -11.1875 5.875 C-10.3099707 5.29468018 -9.43244141 4.71436035 -8.52832031 4.11645508 C-7.7081543 3.58044678 -6.88798828 3.04443848 -6.04296875 2.4921875 C-4.94505005 1.77071533 -4.94505005 1.77071533 -3.82495117 1.03466797 C-2 0 -2 0 0 0 Z " fill="#5398E2" transform="translate(147,47)"/>
<path d="M0 0 C1.37002573 4.11007718 0.07525787 7.15086398 -1.08984375 11.16796875 C-1.42490685 12.36018791 -1.42490685 12.36018791 -1.76673889 13.57649231 C-2.48237473 16.11582265 -3.20977267 18.6516114 -3.9375 21.1875 C-4.4246062 22.90798303 -4.91094395 24.62868381 -5.39648438 26.34960938 C-6.58875254 30.56898529 -7.7915806 34.7852227 -9 39 C-9.33 39 -9.66 39 -10 39 C-10.07470399 35.3395046 -9.99056782 31.93816682 -9.4375 28.3125 C-9.04921817 25.37265185 -9.01474789 23.73681143 -10 21 C-8.68 20.67 -7.36 20.34 -6 20 C-5.01 15.38 -4.02 10.76 -3 6 C-3.99 6.66 -4.98 7.32 -6 8 C-8.6875 8.125 -8.6875 8.125 -11 8 C-7.45960866 5.0843836 -3.8373228 2.49872182 0 0 Z " fill="#E3F7FD" transform="translate(117,81)"/>
<path d="M0 0 C1.126037 3.88390467 0.74250661 6.74996114 0.0625 10.75 C-0.13214844 11.92046875 -0.32679687 13.0909375 -0.52734375 14.296875 C-0.68332031 15.18890625 -0.83929688 16.0809375 -1 17 C-1.66 17 -2.32 17 -3 17 C-3 19.31 -3 21.62 -3 24 C-3.66 24 -4.32 24 -5 24 C-5.09796875 24.71542969 -5.1959375 25.43085937 -5.296875 26.16796875 C-6.48001915 34.05219659 -8.48810361 41.43992349 -11 49 C-11.33 49 -11.66 49 -12 49 C-11.4035012 40.74843331 -9.30576552 33.00699567 -7.125 25.0625 C-6.76895563 23.74299373 -6.4134834 22.42333294 -6.05859375 21.10351562 C-4.14970354 14.03506005 -2.15747127 6.99684211 0 0 Z " fill="#549ADF" transform="translate(114,95)"/>
<path d="M0 0 C1.18429077 3.44884678 0.81292906 5.60798057 -0.25 9.0625 C-0.50265625 9.91972656 -0.7553125 10.77695313 -1.015625 11.66015625 C-2.02564266 14.0609522 -3.03994762 15.32074164 -5 17 C-6.46726798 13.18510326 -5.43336419 10.70988378 -4 7 C-5.32 7 -6.64 7 -8 7 C-8 6.01 -8 5.02 -8 4 C-6.865625 3.71125 -5.73125 3.4225 -4.5625 3.125 C-3.386875 2.75375 -2.21125 2.3825 -1 2 C-0.67 1.34 -0.34 0.68 0 0 Z " fill="#F7FAFA" transform="translate(114,85)"/>
<path d="M0 0 C1.65 0 3.3 0 5 0 C2.87125182 2.26034653 0.69735805 3.97766271 -1.90625 5.6640625 C-2.65003906 6.14617187 -3.39382812 6.62828125 -4.16015625 7.125 C-4.93230469 7.62 -5.70445313 8.115 -6.5 8.625 C-7.27214844 9.12773438 -8.04429688 9.63046875 -8.83984375 10.1484375 C-14.61469446 13.87156482 -14.61469446 13.87156482 -18 15 C-17.01 11.04 -16.02 7.08 -15 3 C-14 7 -14 7 -14 10 C-13.34 10 -12.68 10 -12 10 C-12 9.34 -12 8.68 -12 8 C-10.68 8 -9.36 8 -8 8 C-8 7.34 -8 6.68 -8 6 C-6.20963542 5.0234375 -4.41927083 4.046875 -2.62890625 3.0703125 C-0.83381685 2.08589976 -0.83381685 2.08589976 0 0 Z " fill="#5099DF" transform="translate(106,85)"/>
<path d="M0 0 C0.99 0 1.98 0 3 0 C2.125 6.875 2.125 6.875 1 8 C-1.8116338 8.08861992 -4.59858255 8.11522355 -7.41015625 8.09765625 C-8.25219101 8.0962413 -9.09422577 8.09482635 -9.96177673 8.09336853 C-12.66205335 8.08775263 -15.36224828 8.07519748 -18.0625 8.0625 C-19.88867068 8.05748705 -21.71484266 8.05292379 -23.54101562 8.04882812 C-28.02737542 8.03777804 -32.51367384 8.02050279 -37 8 C-36.67 6.68 -36.34 5.36 -36 4 C-36 4.99 -36 5.98 -36 7 C-24.12 6.67 -12.24 6.34 0 6 C-0.495 3.525 -0.495 3.525 -1 1 C-0.67 0.67 -0.34 0.34 0 0 Z " fill="#0F2545" transform="translate(92,146)"/>
<path d="M0 0 C-1.32 5.28 -2.64 10.56 -4 16 C-4.66 16 -5.32 16 -6 16 C-5.67 13.03 -5.34 10.06 -5 7 C-6.32 6.34 -7.64 5.68 -9 5 C-7.87926138 4.16094435 -6.75325453 3.32892169 -5.625 2.5 C-4.99851562 2.0359375 -4.37203125 1.571875 -3.7265625 1.09375 C-2 0 -2 0 0 0 Z " fill="#132C4F" transform="translate(110,92)"/>
<path d="M0 0 C1.29065057 3.8719517 0.22324098 6.44232601 -0.9375 10.1875 C-1.13279297 10.84169922 -1.32808594 11.49589844 -1.52929688 12.16992188 C-2.01182563 13.78227407 -2.50490205 15.39146289 -3 17 C-3.33 17 -3.66 17 -4 17 C-4 13.66666667 -4 10.33333333 -4 7 C-6.31 7.33 -8.62 7.66 -11 8 C-7.45960866 5.0843836 -3.8373228 2.49872182 0 0 Z " fill="#D1F2FD" transform="translate(117,81)"/>
<path d="M0 0 C0.99 0 1.98 0 3 0 C2.88597936 2.27141109 2.75841495 4.54214552 2.625 6.8125 C2.55539063 8.07707031 2.48578125 9.34164062 2.4140625 10.64453125 C2 14 2 14 0 17 C-0.39387788 19.32387947 -0.73486085 21.65793749 -1 24 C-1.66 23.67 -2.32 23.34 -3 23 C-2.42351925 15.64987044 -0.28953836 8.98575424 2 2 C1.01 2.33 0.02 2.66 -1 3 C-0.67 2.01 -0.34 1.02 0 0 Z " fill="#D7F1FB" transform="translate(145,45)"/>
<path d="M0 0 C-3.96 2.64 -7.92 5.28 -12 8 C-12.66 7.67 -13.32 7.34 -14 7 C-12.26019673 3.27185013 -11.05061904 1.43395134 -7.125 -0.1875 C-4 -1 -4 -1 0 0 Z " fill="#EEFBFA" transform="translate(134,55)"/>
<path d="M0 0 C0.66 0.99 1.32 1.98 2 3 C1.01 4.485 1.01 4.485 0 6 C0.66 6.33 1.32 6.66 2 7 C1.40572612 8.60785777 0.79916412 10.21117709 0.1875 11.8125 C-0.14894531 12.70582031 -0.48539063 13.59914063 -0.83203125 14.51953125 C-1.97730938 16.95181089 -3.07501521 18.18567301 -5 20 C-4.35587386 17.22875964 -3.70977252 14.45800555 -3.0625 11.6875 C-2.88009766 10.90181641 -2.69769531 10.11613281 -2.50976562 9.30664062 C-2.33251953 8.54931641 -2.15527344 7.79199219 -1.97265625 7.01171875 C-1.81031494 6.31522217 -1.64797363 5.61872559 -1.48071289 4.90112305 C-1.06234435 3.2465594 -0.53968631 1.61905892 0 0 Z " fill="#DBF3FD" transform="translate(131,106)"/>
<path d="M0 0 C1.23569026 3.70707079 0.60498612 5.24522534 -0.43359375 8.98046875 C-0.75263672 10.14384766 -1.07167969 11.30722656 -1.40039062 12.50585938 C-1.74263672 13.72080078 -2.08488281 14.93574219 -2.4375 16.1875 C-2.77587891 17.41404297 -3.11425781 18.64058594 -3.46289062 19.90429688 C-4.30109599 22.93836417 -5.14708301 25.97004164 -6 29 C-6.33 29 -6.66 29 -7 29 C-6.44770321 23.75318047 -5.45252637 19.0838423 -4 14 C-3.83398446 12.64815919 -3.68859338 11.29364718 -3.5625 9.9375 C-3.00175397 6.01227776 -1.96178031 3.41179184 0 0 Z " fill="#5299DE" transform="translate(134,91)"/>
<path d="M0 0 C0.33 0 0.66 0 1 0 C0.66444252 7.5905417 0.10887014 14.03613088 -3 21 C-3.391875 21.99 -3.78375 22.98 -4.1875 24 C-4.455625 24.66 -4.72375 25.32 -5 26 C-6.00944616 22.86693259 -5.96463498 20.95643994 -5.0390625 17.8125 C-4.70261719 16.64074219 -4.70261719 16.64074219 -4.359375 15.4453125 C-4.11703125 14.63835937 -3.8746875 13.83140625 -3.625 13 C-3.15863169 11.395898 -2.69247848 9.79173344 -2.2265625 8.1875 C-2.01596191 7.47980469 -1.80536133 6.77210937 -1.58837891 6.04296875 C-1.01108598 4.03849272 -0.49354554 2.02655379 0 0 Z " fill="#D9F4FD" transform="translate(141,68)"/>
<path d="M0 0 C-0.76699219 0.31582031 -1.53398438 0.63164063 -2.32421875 0.95703125 C-6.16948658 3.89290727 -6.67029567 7.12242759 -7.8125 11.6875 C-8.02841797 12.48478516 -8.24433594 13.28207031 -8.46679688 14.10351562 C-8.99518561 16.06442493 -9.49993931 18.03167602 -10 20 C-10.66 20 -11.32 20 -12 20 C-11.00341168 15.13368042 -9.91547466 10.59713918 -8 6 C-7.87625 5.113125 -7.7525 4.22625 -7.625 3.3125 C-7 1 -7 1 -5.125 -0.375 C-3 -1 -3 -1 0 0 Z " fill="#D9F5FD" transform="translate(99,78)"/>
<path d="M0 0 C0.66 0 1.32 0 2 0 C1.51298949 7.59064664 0.00236413 14.67059167 -2 22 C-4 19 -4 19 -4 17 C-3.34 17 -2.68 17 -2 17 C-2.020625 15.865625 -2.04125 14.73125 -2.0625 13.5625 C-2 10 -2 10 -1 9 C-1 7.68 -1 6.36 -1 5 C-1 1 -1 1 0 0 Z " fill="#4895E2" transform="translate(143,50)"/>
<path d="M0 0 C-0.66 1.32 -1.32 2.64 -2 4 C-2.99 4 -3.98 4 -5 4 C-5.33 5.65 -5.66 7.3 -6 9 C-6.99 9.33 -7.98 9.66 -9 10 C-7.65205171 3.50534008 -7.65205171 3.50534008 -4.5 1.0625 C-2 0 -2 0 0 0 Z " fill="#4A96E2" transform="translate(101,77)"/>
<path d="M0 0 C-0.33 1.98 -0.66 3.96 -1 6 C-1.33 5.01 -1.66 4.02 -2 3 C-3.04800781 3.66708984 -3.04800781 3.66708984 -4.1171875 4.34765625 C-5.02726563 4.91355469 -5.93734375 5.47945312 -6.875 6.0625 C-7.77992188 6.63097656 -8.68484375 7.19945312 -9.6171875 7.78515625 C-10.40351563 8.18605469 -11.18984375 8.58695313 -12 9 C-12.66 8.67 -13.32 8.34 -14 8 C-12.04532248 6.66101601 -10.0866421 5.32870953 -8.125 4 C-7.03445312 3.2575 -5.94390625 2.515 -4.8203125 1.75 C-2 0 -2 0 0 0 Z " fill="#5898D4" transform="translate(147,47)"/>
<path d="M0 0 C0.33 0 0.66 0 1 0 C0.67 3.63 0.34 7.26 0 11 C-0.99 11 -1.98 11 -3 11 C-2.44894091 7.0507432 -1.61064629 3.65079826 0 0 Z " fill="#4897E3" transform="translate(118,83)"/>
<path d="M0 0 C1.63129887 4.06285757 0.29968777 7.20102184 -0.9375 11.25 C-1.31777344 12.51328125 -1.69804687 13.7765625 -2.08984375 15.078125 C-2.39019531 16.04234375 -2.69054687 17.0065625 -3 18 C-4.16896929 14.49309214 -3.80371005 12.6174633 -3.1875 9 C-3.01605469 7.948125 -2.84460938 6.89625 -2.66796875 5.8125 C-2 3 -2 3 0 0 Z " fill="#569BDE" transform="translate(139,72)"/>
<path d="M0 0 C0 0.99 0 1.98 0 3 C-0.66 3 -1.32 3 -2 3 C-2 3.66 -2 4.32 -2 5 C-3.28650706 5.69710731 -4.57940665 6.38242876 -5.875 7.0625 C-6.95394531 7.63677734 -6.95394531 7.63677734 -8.0546875 8.22265625 C-8.69664063 8.47917969 -9.33859375 8.73570313 -10 9 C-10.66 8.67 -11.32 8.34 -12 8 C-8.04 5.36 -4.08 2.72 0 0 Z " fill="#293B56" transform="translate(76,113)"/>
<path d="M0 0 C1 2 1 2 0.44140625 4.1640625 C0.15136719 4.97617188 -0.13867188 5.78828125 -0.4375 6.625 C-0.72496094 7.44226563 -1.01242188 8.25953125 -1.30859375 9.1015625 C-1.53675781 9.72804687 -1.76492187 10.35453125 -2 11 C-2.66 11 -3.32 11 -4 11 C-3.71890887 9.35232753 -3.42481474 7.70686855 -3.125 6.0625 C-2.96257813 5.14597656 -2.80015625 4.22945312 -2.6328125 3.28515625 C-2.42398438 2.53105469 -2.21515625 1.77695313 -2 1 C-1.34 0.67 -0.68 0.34 0 0 Z " fill="#283C5B" transform="translate(61,127)"/>
<path d="M0 0 C0.92538169 3.70152678 1.08174162 4.63458162 0 8 C0.99 8.33 1.98 8.66 3 9 C-0.75 12 -0.75 12 -3 12 C-2.01 8.04 -1.02 4.08 0 0 Z " fill="#65A0D6" transform="translate(91,88)"/>
<path d="M0 0 C-0.66 3.3 -1.32 6.6 -2 10 C-2.33 10 -2.66 10 -3 10 C-3 8.02 -3 6.04 -3 4 C-3.66 4 -4.32 4 -5 4 C-5 3.34 -5 2.68 -5 2 C-2 0 -2 0 0 0 Z " fill="#3D4E65" transform="translate(110,92)"/>
<path d="M0 0 C0.33 0 0.66 0 1 0 C1.08131463 1.43655854 1.13933559 2.8744483 1.1875 4.3125 C1.23970703 5.51326172 1.23970703 5.51326172 1.29296875 6.73828125 C0.93801608 9.47851584 0.10633718 10.29171079 -2 12 C-1 3.42857143 -1 3.42857143 0 0 Z " fill="#DAF4FE" transform="translate(134,94)"/>
<path d="M0 0 C0.66 0.33 1.32 0.66 2 1 C0.3125 3.5 0.3125 3.5 -2 6 C-4.75 6.3125 -4.75 6.3125 -7 6 C-4.74259377 3.66475218 -2.7194239 1.81294927 0 0 Z " fill="#4C95E3" transform="translate(108,71)"/>
<path d="M0 0 C0.66 0.33 1.32 0.66 2 1 C1.67 2.98 1.34 4.96 1 7 C0.01 7 -0.98 7 -2 7 C-1.34 4.69 -0.68 2.38 0 0 Z " fill="#F9FDFE" transform="translate(97,145)"/>
<path d="M0 0 C0.66 0.99 1.32 1.98 2 3 C-2.625 5.125 -2.625 5.125 -6 4 C-4.02 2.68 -2.04 1.36 0 0 Z " fill="#233559" transform="translate(90,104)"/>
<path d="M0 0 C-2.31 1.32 -4.62 2.64 -7 4 C-7.33 3.01 -7.66 2.02 -8 1 C-3.375 -1.125 -3.375 -1.125 0 0 Z " fill="#D8F5FE" transform="translate(128,59)"/>
</svg>
