<svg width="24" height="24" viewBox="0 0 24 24" fill="none" xmlns="http://www.w3.org/2000/svg">
<path d="M8.86237 18.7983L8.87569 18.7965L8.85447 18.7883C8.63848 18.7053 8.43499 18.6056 8.24398 18.4893C8.05261 18.3728 7.86539 18.248 7.68233 18.1149L7.68916 18.1055L7.67015 18.1135L6.12015 18.7635L6.11995 18.7636C5.70612 18.9456 5.29277 18.9621 4.87921 18.8132C4.46532 18.6642 4.1426 18.3995 3.91074 18.0186C3.91071 18.0186 3.91068 18.0185 3.91066 18.0185L2.73583 15.9688L2.73566 15.9685C2.504 15.5879 2.4379 15.1829 2.53716 14.7528C2.63651 14.3223 2.85991 13.9664 3.20767 13.6849C3.20773 13.6848 3.20779 13.6848 3.20785 13.6847L4.53251 12.685L4.54056 12.6956L4.53735 12.6732C4.52076 12.5571 4.51248 12.4452 4.51248 12.3375V11.6625C4.51248 11.5548 4.52076 11.4429 4.53735 11.3268L4.55058 11.3287L4.53251 11.315L3.20785 10.3153C3.20779 10.3152 3.20774 10.3152 3.20769 10.3152C2.85992 10.0336 2.63651 9.6777 2.53716 9.24719C2.4379 8.81707 2.504 8.41207 2.73566 8.0315L2.73566 8.0315L2.73583 8.03122L3.91066 5.9815C3.91069 5.98145 3.91072 5.9814 3.91075 5.98135C4.14261 5.6005 4.46532 5.33576 4.87921 5.18676C5.29277 5.03788 5.70612 5.05436 6.11995 5.23644L6.12015 5.23653L7.67015 5.88653L7.66565 5.89724L7.68233 5.88511C7.86532 5.75203 8.05663 5.62726 8.25628 5.5108C8.45583 5.39439 8.65533 5.29464 8.85479 5.21154L8.85949 5.22281L8.86237 5.20169L9.08734 3.5519C9.08734 3.55187 9.08734 3.55184 9.08735 3.55181C9.1536 3.12134 9.34804 2.75726 9.67096 2.45919C9.99361 2.16136 10.3781 2.0125 10.825 2.0125H13.175C13.6219 2.0125 14.0064 2.16136 14.329 2.45919C14.6519 2.75726 14.8464 3.12134 14.9126 3.55181C14.9126 3.55184 14.9126 3.55187 14.9126 3.5519L15.1376 5.20169L15.1243 5.20351L15.1455 5.21167C15.3615 5.29474 15.565 5.39441 15.756 5.51068C15.9474 5.62716 16.1346 5.75197 16.3176 5.88511L16.3108 5.8945L16.3298 5.88653L17.8798 5.23653L17.88 5.23644C18.2938 5.05436 18.7072 5.03788 19.1207 5.18676C19.5346 5.33576 19.8573 5.6005 20.0892 5.98134C20.0892 5.9814 20.0893 5.98145 20.0893 5.9815L21.2641 8.03122L21.2643 8.0315C21.496 8.41207 21.5621 8.81707 21.4628 9.24719C21.3635 9.67771 21.14 10.0336 20.7923 10.3152C20.7922 10.3152 20.7922 10.3152 20.7921 10.3153L19.4675 11.315L19.4594 11.3044L19.4626 11.3268C19.4792 11.4429 19.4875 11.5548 19.4875 11.6625V12.3375C19.4875 12.4445 19.471 12.5559 19.438 12.6716L19.4356 12.6798L19.4424 12.685L20.7671 13.6847C20.7672 13.6848 20.7672 13.6848 20.7673 13.6848C21.115 13.9664 21.3385 14.3223 21.4378 14.7528C21.5371 15.1829 21.471 15.5879 21.2393 15.9685L21.2392 15.9687L20.0393 18.0185C20.0393 18.0185 20.0393 18.0186 20.0392 18.0186C19.8074 18.3995 19.4847 18.6642 19.0707 18.8132C18.6572 18.9621 18.2438 18.9456 17.83 18.7636L17.83 18.7635L16.33 18.1135L16.3348 18.1024L16.3176 18.1149C16.1346 18.248 15.9433 18.3727 15.7437 18.4892C15.5441 18.6056 15.3446 18.7054 15.1452 18.7885L15.1405 18.7772L15.1376 18.7983L14.9126 20.4481C14.9126 20.4481 14.9126 20.4482 14.9126 20.4482C14.8464 20.8787 14.6519 21.2427 14.329 21.5408C14.0064 21.8386 13.6219 21.9875 13.175 21.9875H10.825C10.3781 21.9875 9.99361 21.8386 9.67096 21.5408C9.34804 21.2427 9.15359 20.8787 9.08735 20.4482C9.08734 20.4482 9.08734 20.4481 9.08734 20.4481L8.86237 18.7983ZM10.9876 20.0015L10.9889 20.0125H11H12.975H12.9859L12.9874 20.0016L13.3363 17.36C13.8509 17.2264 14.3284 17.0309 14.7688 16.7733C15.209 16.5158 15.6121 16.2046 15.9779 15.8397L18.4452 16.8615L18.4554 16.8658L18.4608 16.8562L19.4358 15.1562L19.4413 15.1467L19.4325 15.14L17.2898 13.5206C17.3718 13.2889 17.4293 13.0451 17.4624 12.7891C17.4958 12.5302 17.5125 12.2672 17.5125 12C17.5125 11.7328 17.4958 11.4698 17.4624 11.2109C17.4293 10.9549 17.3718 10.7111 17.2898 10.4794L19.4325 8.85997L19.4413 8.85333L19.4358 8.84378L18.4608 7.14378L18.4553 7.13416L18.4451 7.13849L15.978 8.18512C15.6122 7.80374 15.2091 7.48425 14.7688 7.22671C14.3284 6.96915 13.8509 6.77359 13.3364 6.64003L13.0124 3.99848L13.011 3.9875H13H11.025H11.014L11.0126 3.99836L10.6637 6.64001C10.1491 6.77357 9.67155 6.96913 9.23117 7.22671C8.79094 7.4842 8.3879 7.79539 8.02205 8.16026L5.55476 7.13845L5.54461 7.13424L5.53914 7.14378L4.56414 8.84378L4.55862 8.8534L4.56752 8.86003L6.71027 10.4546C6.62822 10.7025 6.57065 10.9504 6.53759 11.1983C6.50418 11.449 6.48748 11.7162 6.48748 12C6.48748 12.2672 6.50418 12.5261 6.53759 12.7767C6.57065 13.0246 6.62823 13.2726 6.71029 13.5204L4.56744 15.14L4.55866 15.1467L4.56414 15.1562L5.53914 16.8562L5.54465 16.8658L5.55486 16.8615L8.02192 15.8149C8.38778 16.1963 8.79086 16.5158 9.23117 16.7733C9.67152 17.0309 10.149 17.2264 10.6636 17.36L10.9876 20.0015ZM14.5161 14.4662C13.8352 15.1472 13.0133 15.4875 12.05 15.4875C11.0699 15.4875 10.244 15.1471 9.57137 14.4662C8.8987 13.7852 8.56248 12.9634 8.56248 12C8.56248 11.0366 8.8987 10.2148 9.57137 9.53378C10.244 8.85289 11.0699 8.5125 12.05 8.5125C13.0133 8.5125 13.8352 8.85285 14.5161 9.53384C15.1971 10.2148 15.5375 11.0366 15.5375 12C15.5375 12.9634 15.1971 13.7852 14.5161 14.4662Z" fill="black" stroke="black" stroke-width="0.025"/>
</svg>
