<svg width="24" height="24" viewBox="0 0 24 24" fill="none" xmlns="http://www.w3.org/2000/svg">
<path d="M12.3411 15.184L12.3499 15.1929L12.3588 15.184L20.8588 6.68405C21.0565 6.48632 21.2865 6.39198 21.5495 6.4002C21.8127 6.40843 22.043 6.51108 22.2409 6.70885C22.4221 6.90664 22.5167 7.13707 22.5249 7.4006C22.5331 7.66359 22.4388 7.89364 22.2411 8.09137L13.0411 17.2914C12.8433 17.4892 12.613 17.5877 12.3499 17.5877C12.0868 17.5877 11.8566 17.4892 11.6588 17.2914L7.40875 13.0414C7.22792 12.8605 7.13741 12.6346 7.13741 12.3627C7.13741 12.0909 7.22788 11.8565 7.40895 11.6588C7.60664 11.4612 7.84092 11.3627 8.11241 11.3627C8.38399 11.3627 8.61834 11.4613 8.81608 11.659L12.3411 15.184ZM6.00875 17.2914L1.75875 13.0414C1.56103 12.8436 1.46669 12.6136 1.47491 12.3506C1.48313 12.0874 1.58579 11.8571 1.78356 11.6592C1.98135 11.478 2.21177 11.3834 2.4753 11.3752C2.7383 11.367 2.96835 11.4613 3.16608 11.659L6.71608 15.209L8.10708 16.6001L7.39147 17.291C7.39143 17.291 7.3914 17.2911 7.39136 17.2911C7.19355 17.4724 6.9631 17.567 6.69952 17.5752C6.43653 17.5834 6.20648 17.4891 6.00875 17.2914ZM12.3498 12.3326L10.9427 10.9501L15.1838 6.70905C15.3646 6.52821 15.5905 6.43771 15.8624 6.43771C16.1342 6.43771 16.3687 6.52817 16.5663 6.70924C16.7639 6.90693 16.8624 7.14122 16.8624 7.41271C16.8624 7.68429 16.7638 7.91864 16.5661 8.11637L12.3498 12.3326Z" fill="black" stroke="black" stroke-width="0.025"/>
</svg>
