<svg width="22" height="22" viewBox="0 0 22 22" fill="none" xmlns="http://www.w3.org/2000/svg">
<path d="M10.9996 0.846191C8.99131 0.846191 7.02817 1.4417 5.35838 2.55742C3.68859 3.67314 2.38714 5.25896 1.61862 7.11433C0.850103 8.9697 0.649023 11.0113 1.04081 12.981C1.4326 14.9506 2.39966 16.7598 3.8197 18.1799C5.23974 19.5999 7.04898 20.567 9.01864 20.9588C10.9883 21.3506 13.0299 21.1495 14.8853 20.381C16.7406 19.6124 18.3264 18.311 19.4422 16.6412C20.5579 14.9714 21.1534 13.0083 21.1534 11C21.1534 9.66661 20.8908 8.34625 20.3805 7.11433C19.8702 5.88241 19.1223 4.76306 18.1794 3.82018C17.2365 2.87731 16.1172 2.12939 14.8853 1.61911C13.6533 1.10883 12.333 0.846191 10.9996 0.846191ZM15.782 8.67481L10.7051 13.7517C10.6107 13.8469 10.4984 13.9224 10.3747 13.974C10.2509 14.0255 10.1182 14.0521 9.98417 14.0521C9.85013 14.0521 9.71741 14.0255 9.59367 13.974C9.46994 13.9224 9.35764 13.8469 9.26324 13.7517L7.23248 11.721C7.04128 11.5298 6.93386 11.2704 6.93386 11C6.93386 10.7296 7.04128 10.4703 7.23248 10.2791C7.42368 10.0879 7.683 9.9805 7.9534 9.9805C8.2238 9.9805 8.48312 10.0879 8.67432 10.2791L9.98417 11.5991L14.3402 7.23296C14.5314 7.04176 14.7907 6.93434 15.0611 6.93434C15.3315 6.93434 15.5908 7.04176 15.782 7.23296C15.9732 7.42416 16.0806 7.68348 16.0806 7.95388C16.0806 8.22428 15.9732 8.4836 15.782 8.67481Z" fill="#04B155"/>
</svg>
