<svg width="18" height="18" viewBox="0 0 18 18" fill="none" xmlns="http://www.w3.org/2000/svg">
<path d="M9.00002 17.3334C7.84724 17.3334 6.76391 17.1147 5.75002 16.6772C4.73613 16.2397 3.85419 15.6459 3.10419 14.8959C2.35419 14.1459 1.76044 13.264 1.32294 12.2501C0.885437 11.2362 0.666687 10.1529 0.666687 9.00008C0.666687 7.8473 0.885437 6.76397 1.32294 5.75008C1.76044 4.73619 2.35419 3.85425 3.10419 3.10425C3.85419 2.35425 4.73613 1.7605 5.75002 1.323C6.76391 0.885498 7.84724 0.666748 9.00002 0.666748C10.1528 0.666748 11.2361 0.885498 12.25 1.323C13.2639 1.7605 14.1459 2.35425 14.8959 3.10425C15.6459 3.85425 16.2396 4.73619 16.6771 5.75008C17.1146 6.76397 17.3334 7.8473 17.3334 9.00008C17.3334 10.1529 17.1146 11.2362 16.6771 12.2501C16.2396 13.264 15.6459 14.1459 14.8959 14.8959C14.1459 15.6459 13.2639 16.2397 12.25 16.6772C11.2361 17.1147 10.1528 17.3334 9.00002 17.3334ZM8.97919 14.8334C9.17363 14.8334 9.34377 14.7605 9.4896 14.6147C9.63544 14.4688 9.70835 14.2987 9.70835 14.1042V13.7917C10.4028 13.6667 11 13.3959 11.5 12.9792C12 12.5626 12.25 11.9445 12.25 11.1251C12.25 10.5417 12.0834 10.007 11.75 9.52092C11.4167 9.0348 10.75 8.61119 9.75002 8.25008C8.91669 7.9723 8.3403 7.72925 8.02085 7.52092C7.70141 7.31258 7.54169 7.02786 7.54169 6.66675C7.54169 6.30564 7.67016 6.02092 7.9271 5.81258C8.18405 5.60425 8.55558 5.50008 9.04169 5.50008C9.31947 5.50008 9.56252 5.54869 9.77085 5.64592C9.97919 5.74314 10.1528 5.87508 10.2917 6.04175C10.4306 6.20842 10.5868 6.323 10.7604 6.3855C10.934 6.448 11.0972 6.44453 11.25 6.37508C11.4584 6.29175 11.6007 6.14939 11.6771 5.948C11.7535 5.74661 11.7361 5.56258 11.625 5.39592C11.4028 5.07647 11.1285 4.80564 10.8021 4.58342C10.4757 4.36119 10.125 4.23619 9.75002 4.20842V3.89592C9.75002 3.70147 9.6771 3.53133 9.53127 3.3855C9.38544 3.23967 9.2153 3.16675 9.02085 3.16675C8.82641 3.16675 8.65627 3.23967 8.51044 3.3855C8.3646 3.53133 8.29169 3.70147 8.29169 3.89592V4.20842C7.59724 4.36119 7.05558 4.66675 6.66669 5.12508C6.2778 5.58342 6.08335 6.0973 6.08335 6.66675C6.08335 7.31953 6.27433 7.8473 6.65627 8.25008C7.03822 8.65286 7.63891 9.00008 8.45835 9.29175C9.33335 9.61119 9.94099 9.89592 10.2813 10.1459C10.6215 10.3959 10.7917 10.7223 10.7917 11.1251C10.7917 11.5834 10.6285 11.9202 10.3021 12.1355C9.97572 12.3508 9.58335 12.4584 9.12502 12.4584C8.76391 12.4584 8.43752 12.3716 8.14585 12.198C7.85419 12.0244 7.61113 11.764 7.41669 11.4167C7.30558 11.2223 7.15974 11.0904 6.97919 11.0209C6.79863 10.9515 6.61808 10.9515 6.43752 11.0209C6.24308 11.0904 6.10072 11.2223 6.01044 11.4167C5.92016 11.6112 5.91669 11.7987 6.00002 11.9792C6.22224 12.4515 6.52085 12.8369 6.89585 13.1355C7.27085 13.4341 7.72224 13.639 8.25002 13.7501V14.1042C8.25002 14.2987 8.32294 14.4688 8.46877 14.6147C8.6146 14.7605 8.78474 14.8334 8.97919 14.8334Z" fill="black"/>
</svg>
